<?xml version="1.0" standalone="no"?>
<!DOCTYPE svg PUBLIC "-//W3C//DTD SVG 20010904//EN"
 "http://www.w3.org/TR/2001/REC-SVG-20010904/DTD/svg10.dtd">
<svg version="1.0" xmlns="http://www.w3.org/2000/svg"
 width="360.000000pt" height="360.000000pt" viewBox="0 0 360.000000 360.000000"
 preserveAspectRatio="xMidYMid meet">

<g transform="translate(0.000000,360.000000) scale(0.100000,-0.100000)"
fill="#000000" stroke="none">
<path d="M498 2954 c-25 -13 -28 -20 -28 -68 0 -38 5 -58 17 -67 12 -11 75
-15 266 -19 l250 -5 223 -669 c122 -369 228 -679 234 -691 6 -11 26 -30 44
-43 l32 -22 610 0 c586 0 610 1 641 20 44 26 54 50 106 245 25 94 61 229 81
300 123 455 156 584 156 613 0 42 -25 87 -57 101 -17 8 -246 11 -737 11 -703
0 -714 0 -739 -20 -15 -12 -31 -37 -36 -58 -10 -33 0 -69 116 -417 112 -337
130 -383 159 -411 18 -17 47 -34 64 -38 18 -3 156 -6 307 -6 l274 0 24 25 c33
32 34 93 4 121 -19 17 -44 19 -292 24 l-271 5 -101 303 c-55 166 -99 305 -96
307 2 3 274 5 603 5 566 0 599 -1 595 -17 -3 -10 -40 -148 -82 -308 -43 -159
-99 -369 -125 -465 l-47 -175 -546 -3 -545 -2 -26 72 c-14 40 -116 345 -226
677 -110 333 -207 615 -216 629 -8 13 -34 32 -57 43 -38 17 -68 19 -297 18
-207 0 -260 -3 -282 -15z"/>
<path d="M1623 1206 c-57 -18 -116 -63 -152 -116 -78 -114 -68 -256 25 -359
141 -157 393 -116 482 77 21 47 24 65 20 137 -4 73 -8 89 -38 135 -73 114
-210 165 -337 126z m172 -189 c61 -61 53 -154 -17 -197 -85 -52 -191 10 -190
110 0 22 6 48 12 60 18 33 70 60 119 60 35 0 49 -6 76 -33z"/>
<path d="M2503 1206 c-89 -29 -161 -96 -189 -174 -22 -62 -17 -169 10 -227 69
-148 244 -212 388 -142 271 133 194 535 -105 553 -36 2 -80 -2 -104 -10z m146
-170 c39 -21 61 -58 61 -107 0 -73 -54 -129 -125 -129 -62 0 -125 67 -125 133
0 31 39 88 70 104 33 17 85 16 119 -1z"/>
</g>
</svg>
